<svg id="visual" viewBox="0 0 1850 1000" width="1850" height="1000" xmlns="http://www.w3.org/2000/svg" xmlns:xlink="http://www.w3.org/1999/xlink" version="1.1"><rect x="0" y="0" width="1850" height="1000" fill="#931C1C"></rect><path d="M0 616L264 651L529 603L793 628L1057 605L1321 693L1586 729L1850 635L1850 1001L1586 1001L1321 1001L1057 1001L793 1001L529 1001L264 1001L0 1001Z" fill="#871400"></path><path d="M0 671L264 681L529 669L793 716L1057 674L1321 670L1586 670L1850 721L1850 1001L1586 1001L1321 1001L1057 1001L793 1001L529 1001L264 1001L0 1001Z" fill="#a32d04"></path><path d="M0 820L264 740L529 773L793 744L1057 760L1321 842L1586 790L1850 820L1850 1001L1586 1001L1321 1001L1057 1001L793 1001L529 1001L264 1001L0 1001Z" fill="#be4407"></path><path d="M0 890L264 830L529 898L793 853L1057 890L1321 847L1586 803L1850 868L1850 1001L1586 1001L1321 1001L1057 1001L793 1001L529 1001L264 1001L0 1001Z" fill="#da5b09"></path><path d="M0 874L264 923L529 930L793 890L1057 876L1321 904L1586 926L1850 889L1850 1001L1586 1001L1321 1001L1057 1001L793 1001L529 1001L264 1001L0 1001Z" fill="#f5730a"></path></svg>